<svg width="548" height="413" viewBox="0 0 548 413" fill="none" xmlns="http://www.w3.org/2000/svg">
<rect width="548" height="413" fill="white"/>
<rect width="522" height="386" transform="translate(13 14)" fill="white"/>
<path d="M123 254.759H146.157V300.512C146.157 327 167.766 327 167.766 327H233.392C233.392 327 255 327 255 300.512V87L195.287 164.86H218.186V291.682H182.171V181.716L123 254.759Z" fill="#BA568A"/>
<path fill-rule="evenodd" clip-rule="evenodd" d="M382.138 89.6675C374.293 87 374.293 87 279 87V326.197C293.267 310.449 293.697 310.162 294.135 309.869C294.59 309.565 295.053 309.255 310.973 291.682V224.482L310.766 224.699V197.187V188.383H310.973V121.238C317.832 121.231 321.135 121.227 324.421 121.223C327.677 121.22 330.915 121.216 337.575 121.209L338.866 121.207C342.426 121.201 345.985 121.196 349.545 121.194L349.874 121.194C351.132 121.193 352.39 121.193 353.648 121.191C355.101 121.187 356.554 121.185 358.007 121.185L359.647 121.185C368.649 121.154 376.75 123.077 383.763 129.592C390.078 136.233 393.985 144.453 394.272 154.131C394.351 162.643 392.365 171.247 386.831 177.542L385.974 178.458C383.658 181.104 381.355 183.463 378.401 185.222L377.557 185.698C372.318 187.639 369.701 188.609 366.998 189.076C364.299 189.543 361.514 189.51 355.95 189.443C354.792 189.433 353.634 189.427 352.476 189.424L352.452 189.424C349.854 189.42 349.847 189.42 347.233 189.414L344.595 189.399L311.48 223.953C316.169 223.963 320.692 223.973 325.183 223.982C329.735 223.992 334.254 224.001 338.88 224.011L340.21 224.015C343.945 224.026 347.68 224.037 351.415 224.041L351.774 224.041C353.09 224.042 354.407 224.042 355.724 224.047C359.39 224.063 363.056 224.078 366.722 224.003C381.29 223.459 396.884 216.498 406.949 204.715L407.71 203.785C408.684 202.63 409.65 201.47 410.6 200.291L411.545 199.094C417.665 191.363 421.883 181.872 424.116 171.938L424.331 170.954C426.335 162.02 426.254 152.129 424.952 143.08C421.913 125.204 412.911 109.852 399.56 99.2017L398.333 98.2563C393.69 94.66 388.615 91.9205 383.206 90.0267L382.138 89.6675Z" fill="#BA568A"/>
</svg>
