<svg xmlns="http://www.w3.org/2000/svg" xmlns:xlink="http://www.w3.org/1999/xlink" width="227" zoomAndPan="magnify" viewBox="0 0 170.25 58.499998" height="78" preserveAspectRatio="xMidYMid meet" version="1.0"><defs><g/><clipPath id="ec241645ef"><path d="M 0.347656 14 L 40 14 L 40 34 L 0.347656 34 Z M 0.347656 14 " clip-rule="nonzero"/></clipPath></defs><g clip-path="url(#ec241645ef)"><g fill="#ffffff" fill-opacity="1"><g transform="translate(1.70024, 33.831188)"><g><path d="M 14.125 0 L 9.609375 0 L -0.75 -19.328125 L 6.9375 -19.328125 L 11.640625 -8.890625 L 16.28125 -19.328125 L 20.875 -19.328125 L 25.5 -8.890625 L 30.21875 -19.328125 L 37.890625 -19.328125 L 27.53125 0 L 23.015625 0 L 18.578125 -9.984375 Z M 14.125 0 "/></g></g></g></g><g fill="#ffffff" fill-opacity="1"><g transform="translate(35.297894, 33.831188)"><g><path d="M 21.8125 -8.734375 L 7.796875 -8.734375 C 7.796875 -7.378906 8.234375 -6.375 9.109375 -5.71875 C 9.992188 -5.070312 10.953125 -4.75 11.984375 -4.75 C 13.054688 -4.75 13.90625 -4.890625 14.53125 -5.171875 C 15.164062 -5.460938 15.882812 -6.035156 16.6875 -6.890625 L 21.515625 -4.484375 C 19.503906 -1.117188 16.160156 0.5625 11.484375 0.5625 C 8.578125 0.5625 6.078125 -0.429688 3.984375 -2.421875 C 1.898438 -4.421875 0.859375 -6.828125 0.859375 -9.640625 C 0.859375 -12.453125 1.898438 -14.863281 3.984375 -16.875 C 6.078125 -18.882812 8.578125 -19.890625 11.484375 -19.890625 C 14.546875 -19.890625 17.035156 -19.003906 18.953125 -17.234375 C 20.878906 -15.460938 21.84375 -12.929688 21.84375 -9.640625 C 21.84375 -9.191406 21.832031 -8.890625 21.8125 -8.734375 Z M 7.984375 -12.4375 L 15.328125 -12.4375 C 15.179688 -13.4375 14.785156 -14.207031 14.140625 -14.75 C 13.503906 -15.289062 12.679688 -15.5625 11.671875 -15.5625 C 10.566406 -15.5625 9.6875 -15.269531 9.03125 -14.6875 C 8.382812 -14.113281 8.035156 -13.363281 7.984375 -12.4375 Z M 7.984375 -12.4375 "/></g></g></g><g fill="#ffffff" fill-opacity="1"><g transform="translate(54.469503, 33.831188)"><g><path d="M 2.265625 0 L 2.265625 -32.390625 L 8.921875 -32.390625 L 8.921875 0 Z M 2.265625 0 "/></g></g></g><g fill="#ffffff" fill-opacity="1"><g transform="translate(62.115339, 33.831188)"><g><path d="M 21.8125 -8.734375 L 7.796875 -8.734375 C 7.796875 -7.378906 8.234375 -6.375 9.109375 -5.71875 C 9.992188 -5.070312 10.953125 -4.75 11.984375 -4.75 C 13.054688 -4.75 13.90625 -4.890625 14.53125 -5.171875 C 15.164062 -5.460938 15.882812 -6.035156 16.6875 -6.890625 L 21.515625 -4.484375 C 19.503906 -1.117188 16.160156 0.5625 11.484375 0.5625 C 8.578125 0.5625 6.078125 -0.429688 3.984375 -2.421875 C 1.898438 -4.421875 0.859375 -6.828125 0.859375 -9.640625 C 0.859375 -12.453125 1.898438 -14.863281 3.984375 -16.875 C 6.078125 -18.882812 8.578125 -19.890625 11.484375 -19.890625 C 14.546875 -19.890625 17.035156 -19.003906 18.953125 -17.234375 C 20.878906 -15.460938 21.84375 -12.929688 21.84375 -9.640625 C 21.84375 -9.191406 21.832031 -8.890625 21.8125 -8.734375 Z M 7.984375 -12.4375 L 15.328125 -12.4375 C 15.179688 -13.4375 14.785156 -14.207031 14.140625 -14.75 C 13.503906 -15.289062 12.679688 -15.5625 11.671875 -15.5625 C 10.566406 -15.5625 9.6875 -15.269531 9.03125 -14.6875 C 8.382812 -14.113281 8.035156 -13.363281 7.984375 -12.4375 Z M 7.984375 -12.4375 "/></g></g></g><g fill="#ffffff" fill-opacity="1"><g transform="translate(81.28695, 33.831188)"><g><path d="M 7.15625 -19.328125 L 11.859375 -8.8125 L 16.578125 -19.328125 L 24.484375 -19.328125 L 14.125 0 L 9.609375 0 L -0.75 -19.328125 Z M 7.15625 -19.328125 "/></g></g></g><g fill="#ffffff" fill-opacity="1"><g transform="translate(101.475539, 33.831188)"><g><path d="M 21.8125 -8.734375 L 7.796875 -8.734375 C 7.796875 -7.378906 8.234375 -6.375 9.109375 -5.71875 C 9.992188 -5.070312 10.953125 -4.75 11.984375 -4.75 C 13.054688 -4.75 13.90625 -4.890625 14.53125 -5.171875 C 15.164062 -5.460938 15.882812 -6.035156 16.6875 -6.890625 L 21.515625 -4.484375 C 19.503906 -1.117188 16.160156 0.5625 11.484375 0.5625 C 8.578125 0.5625 6.078125 -0.429688 3.984375 -2.421875 C 1.898438 -4.421875 0.859375 -6.828125 0.859375 -9.640625 C 0.859375 -12.453125 1.898438 -14.863281 3.984375 -16.875 C 6.078125 -18.882812 8.578125 -19.890625 11.484375 -19.890625 C 14.546875 -19.890625 17.035156 -19.003906 18.953125 -17.234375 C 20.878906 -15.460938 21.84375 -12.929688 21.84375 -9.640625 C 21.84375 -9.191406 21.832031 -8.890625 21.8125 -8.734375 Z M 7.984375 -12.4375 L 15.328125 -12.4375 C 15.179688 -13.4375 14.785156 -14.207031 14.140625 -14.75 C 13.503906 -15.289062 12.679688 -15.5625 11.671875 -15.5625 C 10.566406 -15.5625 9.6875 -15.269531 9.03125 -14.6875 C 8.382812 -14.113281 8.035156 -13.363281 7.984375 -12.4375 Z M 7.984375 -12.4375 "/></g></g></g><g fill="#ffffff" fill-opacity="1"><g transform="translate(120.647145, 33.831188)"><g><path d="M 2.265625 0 L 2.265625 -19.328125 L 8.921875 -19.328125 L 8.921875 -17.296875 L 9 -17.296875 C 10.738281 -19.023438 12.585938 -19.890625 14.546875 -19.890625 C 15.492188 -19.890625 16.4375 -19.765625 17.375 -19.515625 C 18.320312 -19.265625 19.226562 -18.875 20.09375 -18.34375 C 20.957031 -17.820312 21.660156 -17.078125 22.203125 -16.109375 C 22.742188 -15.140625 23.015625 -14.015625 23.015625 -12.734375 L 23.015625 0 L 16.34375 0 L 16.34375 -10.921875 C 16.34375 -11.929688 16.019531 -12.8125 15.375 -13.5625 C 14.738281 -14.3125 13.910156 -14.6875 12.890625 -14.6875 C 11.878906 -14.6875 10.960938 -14.296875 10.140625 -13.515625 C 9.328125 -12.742188 8.921875 -11.878906 8.921875 -10.921875 L 8.921875 0 Z M 2.265625 0 "/></g></g></g><g fill="#ffffff" fill-opacity="1"><g transform="translate(121.195968, 54.26239)"><g><path d="M 8.546875 -19.328125 L 8.546875 -10.140625 C 8.546875 -8.222656 8.832031 -6.863281 9.40625 -6.0625 C 9.988281 -5.257812 10.96875 -4.859375 12.34375 -4.859375 C 13.726562 -4.859375 14.707031 -5.257812 15.28125 -6.0625 C 15.863281 -6.863281 16.15625 -8.222656 16.15625 -10.140625 L 16.15625 -19.328125 L 22.828125 -19.328125 L 22.828125 -8.515625 C 22.828125 -5.296875 21.988281 -2.976562 20.3125 -1.5625 C 18.644531 -0.144531 15.988281 0.5625 12.34375 0.5625 C 8.707031 0.5625 6.054688 -0.144531 4.390625 -1.5625 C 2.722656 -2.976562 1.890625 -5.296875 1.890625 -8.515625 L 1.890625 -19.328125 Z M 8.546875 -19.328125 "/></g></g></g><g fill="#ffffff" fill-opacity="1"><g transform="translate(143.719979, 54.26239)"><g><path d="M 2.265625 -31.078125 L 13.59375 -31.078125 C 16.757812 -31.078125 19.320312 -30.257812 21.28125 -28.625 C 23.238281 -27 24.21875 -24.628906 24.21875 -21.515625 C 24.21875 -18.398438 23.222656 -15.957031 21.234375 -14.1875 C 19.253906 -12.414062 16.707031 -11.53125 13.59375 -11.53125 L 9.34375 -11.53125 L 9.34375 0 L 2.265625 0 Z M 9.34375 -17.171875 L 11.34375 -17.171875 C 12.925781 -17.171875 14.222656 -17.488281 15.234375 -18.125 C 16.253906 -18.769531 16.765625 -19.820312 16.765625 -21.28125 C 16.765625 -22.757812 16.253906 -23.816406 15.234375 -24.453125 C 14.222656 -25.097656 12.925781 -25.421875 11.34375 -25.421875 L 9.34375 -25.421875 Z M 9.34375 -17.171875 "/></g></g></g><g fill="#ffffff" fill-opacity="1"><g transform="translate(49.64886, 41.28703)"><g><path d="M 3 0.109375 C 2.6875 0.109375 2.394531 0.0664062 2.125 -0.015625 C 1.851562 -0.109375 1.601562 -0.238281 1.375 -0.40625 C 1.144531 -0.570312 0.945312 -0.769531 0.78125 -1 C 0.613281 -1.226562 0.484375 -1.476562 0.390625 -1.75 C 0.296875 -2.019531 0.25 -2.304688 0.25 -2.609375 C 0.25 -2.910156 0.296875 -3.195312 0.390625 -3.46875 C 0.484375 -3.738281 0.613281 -3.984375 0.78125 -4.203125 C 0.945312 -4.429688 1.144531 -4.628906 1.375 -4.796875 C 1.601562 -4.960938 1.851562 -5.09375 2.125 -5.1875 C 2.394531 -5.28125 2.6875 -5.328125 3 -5.328125 C 3.269531 -5.328125 3.539062 -5.285156 3.8125 -5.203125 C 4.082031 -5.117188 4.332031 -4.992188 4.5625 -4.828125 C 4.800781 -4.660156 5 -4.445312 5.15625 -4.1875 C 5.320312 -3.9375 5.4375 -3.640625 5.5 -3.296875 L 4.53125 -3.296875 C 4.46875 -3.554688 4.359375 -3.769531 4.203125 -3.9375 C 4.046875 -4.113281 3.863281 -4.242188 3.65625 -4.328125 C 3.445312 -4.410156 3.21875 -4.453125 2.96875 -4.453125 C 2.726562 -4.453125 2.5 -4.40625 2.28125 -4.3125 C 2.0625 -4.226562 1.867188 -4.101562 1.703125 -3.9375 C 1.546875 -3.78125 1.421875 -3.585938 1.328125 -3.359375 C 1.242188 -3.128906 1.203125 -2.878906 1.203125 -2.609375 C 1.203125 -2.316406 1.242188 -2.054688 1.328125 -1.828125 C 1.421875 -1.609375 1.546875 -1.414062 1.703125 -1.25 C 1.867188 -1.09375 2.0625 -0.972656 2.28125 -0.890625 C 2.5 -0.804688 2.726562 -0.765625 2.96875 -0.765625 C 3.21875 -0.765625 3.445312 -0.804688 3.65625 -0.890625 C 3.863281 -0.972656 4.046875 -1.097656 4.203125 -1.265625 C 4.359375 -1.429688 4.46875 -1.648438 4.53125 -1.921875 L 5.5 -1.921875 C 5.4375 -1.578125 5.320312 -1.273438 5.15625 -1.015625 C 5 -0.753906 4.804688 -0.539062 4.578125 -0.375 C 4.347656 -0.21875 4.09375 -0.0976562 3.8125 -0.015625 C 3.539062 0.0664062 3.269531 0.109375 3 0.109375 Z M 3 0.109375 "/></g></g></g><g fill="#ffffff" fill-opacity="1"><g transform="translate(55.411745, 41.28703)"><g><path d="M 2.328125 0.125 C 2.023438 0.125 1.75 0.0703125 1.5 -0.03125 C 1.25 -0.144531 1.03125 -0.296875 0.84375 -0.484375 C 0.65625 -0.679688 0.507812 -0.90625 0.40625 -1.15625 C 0.3125 -1.40625 0.265625 -1.675781 0.265625 -1.96875 C 0.265625 -2.25 0.3125 -2.515625 0.40625 -2.765625 C 0.507812 -3.023438 0.65625 -3.25 0.84375 -3.4375 C 1.03125 -3.625 1.25 -3.769531 1.5 -3.875 C 1.75 -3.988281 2.023438 -4.046875 2.328125 -4.046875 C 2.628906 -4.046875 2.90625 -3.988281 3.15625 -3.875 C 3.414062 -3.769531 3.632812 -3.625 3.8125 -3.4375 C 4 -3.25 4.144531 -3.023438 4.25 -2.765625 C 4.351562 -2.515625 4.40625 -2.25 4.40625 -1.96875 C 4.40625 -1.675781 4.351562 -1.40625 4.25 -1.15625 C 4.144531 -0.90625 4 -0.679688 3.8125 -0.484375 C 3.632812 -0.296875 3.414062 -0.144531 3.15625 -0.03125 C 2.90625 0.0703125 2.628906 0.125 2.328125 0.125 Z M 2.328125 -0.734375 C 2.554688 -0.734375 2.753906 -0.785156 2.921875 -0.890625 C 3.097656 -1.003906 3.234375 -1.148438 3.328125 -1.328125 C 3.429688 -1.515625 3.484375 -1.726562 3.484375 -1.96875 C 3.484375 -2.195312 3.429688 -2.40625 3.328125 -2.59375 C 3.234375 -2.78125 3.097656 -2.925781 2.921875 -3.03125 C 2.753906 -3.132812 2.554688 -3.1875 2.328125 -3.1875 C 2.109375 -3.1875 1.910156 -3.132812 1.734375 -3.03125 C 1.566406 -2.925781 1.429688 -2.78125 1.328125 -2.59375 C 1.234375 -2.40625 1.1875 -2.195312 1.1875 -1.96875 C 1.1875 -1.726562 1.234375 -1.515625 1.328125 -1.328125 C 1.429688 -1.148438 1.566406 -1.003906 1.734375 -0.890625 C 1.910156 -0.785156 2.109375 -0.734375 2.328125 -0.734375 Z M 2.328125 -0.734375 "/></g></g></g><g fill="#ffffff" fill-opacity="1"><g transform="translate(60.084766, 41.28703)"><g><path d="M 1.46875 0 L 0.546875 0 L 0.546875 -3.921875 L 1.421875 -3.921875 L 1.421875 -3.3125 C 1.492188 -3.457031 1.597656 -3.582031 1.734375 -3.6875 C 1.867188 -3.800781 2.023438 -3.890625 2.203125 -3.953125 C 2.378906 -4.015625 2.566406 -4.046875 2.765625 -4.046875 C 3.296875 -4.046875 3.691406 -3.878906 3.953125 -3.546875 C 4.210938 -3.210938 4.34375 -2.738281 4.34375 -2.125 L 4.34375 0 L 3.421875 0 L 3.421875 -2.09375 C 3.421875 -2.488281 3.335938 -2.769531 3.171875 -2.9375 C 3.003906 -3.113281 2.78125 -3.203125 2.5 -3.203125 C 2.320312 -3.203125 2.15625 -3.15625 2 -3.0625 C 1.84375 -2.96875 1.710938 -2.832031 1.609375 -2.65625 C 1.515625 -2.476562 1.46875 -2.257812 1.46875 -2 Z M 1.46875 0 "/></g></g></g><g fill="#ffffff" fill-opacity="1"><g transform="translate(64.941342, 41.28703)"><g><path d="M 1.46875 0 L 0.546875 0 L 0.546875 -3.921875 L 1.421875 -3.921875 L 1.421875 -3.3125 C 1.492188 -3.457031 1.597656 -3.582031 1.734375 -3.6875 C 1.867188 -3.800781 2.023438 -3.890625 2.203125 -3.953125 C 2.378906 -4.015625 2.566406 -4.046875 2.765625 -4.046875 C 3.296875 -4.046875 3.691406 -3.878906 3.953125 -3.546875 C 4.210938 -3.210938 4.34375 -2.738281 4.34375 -2.125 L 4.34375 0 L 3.421875 0 L 3.421875 -2.09375 C 3.421875 -2.488281 3.335938 -2.769531 3.171875 -2.9375 C 3.003906 -3.113281 2.78125 -3.203125 2.5 -3.203125 C 2.320312 -3.203125 2.15625 -3.15625 2 -3.0625 C 1.84375 -2.96875 1.710938 -2.832031 1.609375 -2.65625 C 1.515625 -2.476562 1.46875 -2.257812 1.46875 -2 Z M 1.46875 0 "/></g></g></g><g fill="#ffffff" fill-opacity="1"><g transform="translate(69.797918, 41.28703)"><g><path d="M 4.28125 -2.03125 C 4.28125 -1.976562 4.273438 -1.929688 4.265625 -1.890625 C 4.265625 -1.847656 4.265625 -1.789062 4.265625 -1.71875 L 1.1875 -1.71875 C 1.226562 -1.507812 1.296875 -1.328125 1.390625 -1.171875 C 1.492188 -1.023438 1.625 -0.910156 1.78125 -0.828125 C 1.9375 -0.742188 2.101562 -0.703125 2.28125 -0.703125 C 2.519531 -0.703125 2.707031 -0.75 2.84375 -0.84375 C 2.988281 -0.9375 3.097656 -1.066406 3.171875 -1.234375 L 4.171875 -1.234375 C 4.128906 -1.054688 4.050781 -0.882812 3.9375 -0.71875 C 3.820312 -0.5625 3.6875 -0.421875 3.53125 -0.296875 C 3.375 -0.171875 3.191406 -0.0703125 2.984375 0 C 2.773438 0.0820312 2.546875 0.125 2.296875 0.125 C 2.003906 0.125 1.734375 0.0703125 1.484375 -0.03125 C 1.234375 -0.144531 1.015625 -0.296875 0.828125 -0.484375 C 0.648438 -0.679688 0.507812 -0.90625 0.40625 -1.15625 C 0.3125 -1.40625 0.265625 -1.675781 0.265625 -1.96875 C 0.265625 -2.25 0.3125 -2.515625 0.40625 -2.765625 C 0.507812 -3.023438 0.648438 -3.25 0.828125 -3.4375 C 1.015625 -3.625 1.234375 -3.769531 1.484375 -3.875 C 1.734375 -3.988281 2.003906 -4.046875 2.296875 -4.046875 C 2.597656 -4.046875 2.867188 -3.992188 3.109375 -3.890625 C 3.347656 -3.785156 3.554688 -3.640625 3.734375 -3.453125 C 3.910156 -3.265625 4.046875 -3.046875 4.140625 -2.796875 C 4.234375 -2.554688 4.28125 -2.300781 4.28125 -2.03125 Z M 1.234375 -2.4375 L 3.34375 -2.4375 C 3.320312 -2.582031 3.265625 -2.710938 3.171875 -2.828125 C 3.078125 -2.953125 2.953125 -3.050781 2.796875 -3.125 C 2.640625 -3.195312 2.472656 -3.234375 2.296875 -3.234375 C 2.140625 -3.234375 1.988281 -3.203125 1.84375 -3.140625 C 1.707031 -3.085938 1.582031 -3.003906 1.46875 -2.890625 C 1.363281 -2.773438 1.285156 -2.625 1.234375 -2.4375 Z M 1.234375 -2.4375 "/></g></g></g><g fill="#ffffff" fill-opacity="1"><g transform="translate(74.29121, 41.28703)"><g><path d="M 2.296875 0.125 C 2.003906 0.125 1.734375 0.0703125 1.484375 -0.03125 C 1.234375 -0.144531 1.015625 -0.296875 0.828125 -0.484375 C 0.648438 -0.679688 0.507812 -0.90625 0.40625 -1.15625 C 0.3125 -1.40625 0.265625 -1.675781 0.265625 -1.96875 C 0.265625 -2.25 0.3125 -2.515625 0.40625 -2.765625 C 0.507812 -3.015625 0.648438 -3.234375 0.828125 -3.421875 C 1.015625 -3.617188 1.234375 -3.769531 1.484375 -3.875 C 1.734375 -3.988281 2.003906 -4.046875 2.296875 -4.046875 C 2.628906 -4.046875 2.925781 -3.976562 3.1875 -3.84375 C 3.457031 -3.71875 3.679688 -3.539062 3.859375 -3.3125 C 4.046875 -3.082031 4.175781 -2.828125 4.25 -2.546875 L 3.3125 -2.546875 C 3.21875 -2.765625 3.082031 -2.925781 2.90625 -3.03125 C 2.726562 -3.132812 2.523438 -3.1875 2.296875 -3.1875 C 2.148438 -3.1875 2.007812 -3.160156 1.875 -3.109375 C 1.75 -3.054688 1.632812 -2.972656 1.53125 -2.859375 C 1.425781 -2.753906 1.34375 -2.625 1.28125 -2.46875 C 1.21875 -2.320312 1.1875 -2.15625 1.1875 -1.96875 C 1.1875 -1.769531 1.21875 -1.59375 1.28125 -1.4375 C 1.34375 -1.289062 1.425781 -1.164062 1.53125 -1.0625 C 1.632812 -0.957031 1.753906 -0.875 1.890625 -0.8125 C 2.023438 -0.757812 2.160156 -0.734375 2.296875 -0.734375 C 2.523438 -0.734375 2.726562 -0.785156 2.90625 -0.890625 C 3.082031 -1.003906 3.21875 -1.1875 3.3125 -1.4375 L 4.25 -1.4375 C 4.175781 -1.132812 4.050781 -0.863281 3.875 -0.625 C 3.695312 -0.394531 3.472656 -0.210938 3.203125 -0.078125 C 2.929688 0.0546875 2.628906 0.125 2.296875 0.125 Z M 2.296875 0.125 "/></g></g></g><g fill="#ffffff" fill-opacity="1"><g transform="translate(78.673577, 41.28703)"><g><path d="M 2.953125 0 L 2.15625 0 C 2.039062 0 1.921875 -0.0078125 1.796875 -0.03125 C 1.671875 -0.0507812 1.550781 -0.0859375 1.4375 -0.140625 C 1.332031 -0.203125 1.234375 -0.289062 1.140625 -0.40625 C 1.054688 -0.519531 0.988281 -0.664062 0.9375 -0.84375 C 0.882812 -1.019531 0.859375 -1.238281 0.859375 -1.5 L 0.859375 -3.140625 L 0.046875 -3.140625 L 0.046875 -3.921875 L 0.859375 -3.921875 L 0.859375 -5.078125 L 1.78125 -5.09375 L 1.78125 -3.921875 L 2.953125 -3.921875 L 2.953125 -3.140625 L 1.78125 -3.140625 L 1.78125 -1.453125 C 1.78125 -1.265625 1.804688 -1.117188 1.859375 -1.015625 C 1.910156 -0.921875 1.976562 -0.851562 2.0625 -0.8125 C 2.15625 -0.78125 2.25 -0.765625 2.34375 -0.765625 L 2.953125 -0.765625 Z M 2.953125 0 "/></g></g></g><g fill="#ffffff" fill-opacity="1"><g transform="translate(81.839911, 41.28703)"><g/></g></g><g fill="#ffffff" fill-opacity="1"><g transform="translate(83.748128, 41.28703)"><g><path d="M 2.109375 0.125 C 1.847656 0.125 1.601562 0.0703125 1.375 -0.03125 C 1.15625 -0.144531 0.957031 -0.296875 0.78125 -0.484375 C 0.613281 -0.679688 0.484375 -0.90625 0.390625 -1.15625 C 0.304688 -1.40625 0.265625 -1.675781 0.265625 -1.96875 C 0.265625 -2.25 0.3125 -2.515625 0.40625 -2.765625 C 0.5 -3.023438 0.628906 -3.25 0.796875 -3.4375 C 0.960938 -3.625 1.15625 -3.769531 1.375 -3.875 C 1.601562 -3.988281 1.847656 -4.046875 2.109375 -4.046875 C 2.429688 -4.046875 2.71875 -3.972656 2.96875 -3.828125 C 3.21875 -3.691406 3.40625 -3.503906 3.53125 -3.265625 L 3.53125 -3.921875 L 4.40625 -3.921875 L 4.40625 0 L 3.53125 0 L 3.53125 -0.65625 C 3.40625 -0.414062 3.21875 -0.222656 2.96875 -0.078125 C 2.71875 0.0546875 2.429688 0.125 2.109375 0.125 Z M 2.328125 -0.734375 C 2.492188 -0.734375 2.644531 -0.765625 2.78125 -0.828125 C 2.925781 -0.890625 3.050781 -0.972656 3.15625 -1.078125 C 3.257812 -1.191406 3.335938 -1.320312 3.390625 -1.46875 C 3.453125 -1.625 3.484375 -1.789062 3.484375 -1.96875 C 3.484375 -2.132812 3.453125 -2.289062 3.390625 -2.4375 C 3.335938 -2.59375 3.257812 -2.722656 3.15625 -2.828125 C 3.050781 -2.941406 2.925781 -3.03125 2.78125 -3.09375 C 2.644531 -3.15625 2.492188 -3.1875 2.328125 -3.1875 C 2.117188 -3.1875 1.925781 -3.132812 1.75 -3.03125 C 1.582031 -2.9375 1.445312 -2.796875 1.34375 -2.609375 C 1.238281 -2.421875 1.1875 -2.207031 1.1875 -1.96875 C 1.1875 -1.707031 1.238281 -1.484375 1.34375 -1.296875 C 1.445312 -1.117188 1.585938 -0.976562 1.765625 -0.875 C 1.941406 -0.78125 2.128906 -0.734375 2.328125 -0.734375 Z M 2.328125 -0.734375 "/></g></g></g><g fill="#ffffff" fill-opacity="1"><g transform="translate(88.700309, 41.28703)"><g><path d="M 1.46875 0 L 0.546875 0 L 0.546875 -3.921875 L 1.421875 -3.921875 L 1.421875 -3.3125 C 1.492188 -3.457031 1.597656 -3.582031 1.734375 -3.6875 C 1.867188 -3.800781 2.023438 -3.890625 2.203125 -3.953125 C 2.378906 -4.015625 2.566406 -4.046875 2.765625 -4.046875 C 3.296875 -4.046875 3.691406 -3.878906 3.953125 -3.546875 C 4.210938 -3.210938 4.34375 -2.738281 4.34375 -2.125 L 4.34375 0 L 3.421875 0 L 3.421875 -2.09375 C 3.421875 -2.488281 3.335938 -2.769531 3.171875 -2.9375 C 3.003906 -3.113281 2.78125 -3.203125 2.5 -3.203125 C 2.320312 -3.203125 2.15625 -3.15625 2 -3.0625 C 1.84375 -2.96875 1.710938 -2.832031 1.609375 -2.65625 C 1.515625 -2.476562 1.46875 -2.257812 1.46875 -2 Z M 1.46875 0 "/></g></g></g><g fill="#ffffff" fill-opacity="1"><g transform="translate(93.556885, 41.28703)"><g><path d="M 2.15625 0.125 C 1.882812 0.125 1.628906 0.0703125 1.390625 -0.03125 C 1.160156 -0.144531 0.960938 -0.296875 0.796875 -0.484375 C 0.628906 -0.679688 0.5 -0.90625 0.40625 -1.15625 C 0.3125 -1.40625 0.265625 -1.675781 0.265625 -1.96875 C 0.265625 -2.25 0.304688 -2.515625 0.390625 -2.765625 C 0.484375 -3.023438 0.613281 -3.25 0.78125 -3.4375 C 0.957031 -3.625 1.160156 -3.769531 1.390625 -3.875 C 1.628906 -3.988281 1.890625 -4.046875 2.171875 -4.046875 C 2.390625 -4.046875 2.582031 -4.007812 2.75 -3.9375 C 2.925781 -3.863281 3.078125 -3.765625 3.203125 -3.640625 C 3.328125 -3.523438 3.425781 -3.40625 3.5 -3.28125 L 3.484375 -3.703125 L 3.484375 -5.375 L 4.40625 -5.375 L 4.40625 0 L 3.53125 0 L 3.53125 -0.65625 C 3.445312 -0.519531 3.335938 -0.390625 3.203125 -0.265625 C 3.078125 -0.148438 2.925781 -0.0546875 2.75 0.015625 C 2.570312 0.0859375 2.375 0.125 2.15625 0.125 Z M 2.328125 -0.734375 C 2.492188 -0.734375 2.644531 -0.765625 2.78125 -0.828125 C 2.925781 -0.890625 3.050781 -0.972656 3.15625 -1.078125 C 3.257812 -1.191406 3.335938 -1.320312 3.390625 -1.46875 C 3.453125 -1.625 3.484375 -1.789062 3.484375 -1.96875 C 3.484375 -2.132812 3.453125 -2.289062 3.390625 -2.4375 C 3.335938 -2.59375 3.257812 -2.722656 3.15625 -2.828125 C 3.050781 -2.941406 2.925781 -3.03125 2.78125 -3.09375 C 2.644531 -3.15625 2.492188 -3.1875 2.328125 -3.1875 C 2.109375 -3.1875 1.910156 -3.132812 1.734375 -3.03125 C 1.566406 -2.925781 1.429688 -2.78125 1.328125 -2.59375 C 1.222656 -2.414062 1.171875 -2.207031 1.171875 -1.96875 C 1.171875 -1.726562 1.21875 -1.515625 1.3125 -1.328125 C 1.414062 -1.148438 1.554688 -1.003906 1.734375 -0.890625 C 1.910156 -0.785156 2.109375 -0.734375 2.328125 -0.734375 Z M 2.328125 -0.734375 "/></g></g></g><g fill="#ffffff" fill-opacity="1"><g transform="translate(98.501418, 41.28703)"><g/></g></g><g fill="#ffffff" fill-opacity="1"><g transform="translate(100.409635, 41.28703)"><g><path d="M 3.921875 0 L 0.625 0 L 0.625 -5.203125 L 1.578125 -5.203125 L 1.578125 -0.859375 L 3.921875 -0.859375 Z M 3.921875 0 "/></g></g></g><g fill="#ffffff" fill-opacity="1"><g transform="translate(104.367508, 41.28703)"><g><path d="M 4.28125 -2.03125 C 4.28125 -1.976562 4.273438 -1.929688 4.265625 -1.890625 C 4.265625 -1.847656 4.265625 -1.789062 4.265625 -1.71875 L 1.1875 -1.71875 C 1.226562 -1.507812 1.296875 -1.328125 1.390625 -1.171875 C 1.492188 -1.023438 1.625 -0.910156 1.78125 -0.828125 C 1.9375 -0.742188 2.101562 -0.703125 2.28125 -0.703125 C 2.519531 -0.703125 2.707031 -0.75 2.84375 -0.84375 C 2.988281 -0.9375 3.097656 -1.066406 3.171875 -1.234375 L 4.171875 -1.234375 C 4.128906 -1.054688 4.050781 -0.882812 3.9375 -0.71875 C 3.820312 -0.5625 3.6875 -0.421875 3.53125 -0.296875 C 3.375 -0.171875 3.191406 -0.0703125 2.984375 0 C 2.773438 0.0820312 2.546875 0.125 2.296875 0.125 C 2.003906 0.125 1.734375 0.0703125 1.484375 -0.03125 C 1.234375 -0.144531 1.015625 -0.296875 0.828125 -0.484375 C 0.648438 -0.679688 0.507812 -0.90625 0.40625 -1.15625 C 0.3125 -1.40625 0.265625 -1.675781 0.265625 -1.96875 C 0.265625 -2.25 0.3125 -2.515625 0.40625 -2.765625 C 0.507812 -3.023438 0.648438 -3.25 0.828125 -3.4375 C 1.015625 -3.625 1.234375 -3.769531 1.484375 -3.875 C 1.734375 -3.988281 2.003906 -4.046875 2.296875 -4.046875 C 2.597656 -4.046875 2.867188 -3.992188 3.109375 -3.890625 C 3.347656 -3.785156 3.554688 -3.640625 3.734375 -3.453125 C 3.910156 -3.265625 4.046875 -3.046875 4.140625 -2.796875 C 4.234375 -2.554688 4.28125 -2.300781 4.28125 -2.03125 Z M 1.234375 -2.4375 L 3.34375 -2.4375 C 3.320312 -2.582031 3.265625 -2.710938 3.171875 -2.828125 C 3.078125 -2.953125 2.953125 -3.050781 2.796875 -3.125 C 2.640625 -3.195312 2.472656 -3.234375 2.296875 -3.234375 C 2.140625 -3.234375 1.988281 -3.203125 1.84375 -3.140625 C 1.707031 -3.085938 1.582031 -3.003906 1.46875 -2.890625 C 1.363281 -2.773438 1.285156 -2.625 1.234375 -2.4375 Z M 1.234375 -2.4375 "/></g></g></g><g fill="#ffffff" fill-opacity="1"><g transform="translate(108.72308, 41.28703)"><g><path d="M 2.46875 0 L 1.609375 0 L 0.03125 -3.921875 L 1.015625 -3.921875 L 1.9375 -1.5625 L 2.03125 -1.140625 L 2.140625 -1.546875 L 3.046875 -3.921875 L 4.046875 -3.921875 Z M 2.46875 0 "/></g></g></g><g fill="#ffffff" fill-opacity="1"><g transform="translate(112.661824, 41.28703)"><g><path d="M 4.28125 -2.03125 C 4.28125 -1.976562 4.273438 -1.929688 4.265625 -1.890625 C 4.265625 -1.847656 4.265625 -1.789062 4.265625 -1.71875 L 1.1875 -1.71875 C 1.226562 -1.507812 1.296875 -1.328125 1.390625 -1.171875 C 1.492188 -1.023438 1.625 -0.910156 1.78125 -0.828125 C 1.9375 -0.742188 2.101562 -0.703125 2.28125 -0.703125 C 2.519531 -0.703125 2.707031 -0.75 2.84375 -0.84375 C 2.988281 -0.9375 3.097656 -1.066406 3.171875 -1.234375 L 4.171875 -1.234375 C 4.128906 -1.054688 4.050781 -0.882812 3.9375 -0.71875 C 3.820312 -0.5625 3.6875 -0.421875 3.53125 -0.296875 C 3.375 -0.171875 3.191406 -0.0703125 2.984375 0 C 2.773438 0.0820312 2.546875 0.125 2.296875 0.125 C 2.003906 0.125 1.734375 0.0703125 1.484375 -0.03125 C 1.234375 -0.144531 1.015625 -0.296875 0.828125 -0.484375 C 0.648438 -0.679688 0.507812 -0.90625 0.40625 -1.15625 C 0.3125 -1.40625 0.265625 -1.675781 0.265625 -1.96875 C 0.265625 -2.25 0.3125 -2.515625 0.40625 -2.765625 C 0.507812 -3.023438 0.648438 -3.25 0.828125 -3.4375 C 1.015625 -3.625 1.234375 -3.769531 1.484375 -3.875 C 1.734375 -3.988281 2.003906 -4.046875 2.296875 -4.046875 C 2.597656 -4.046875 2.867188 -3.992188 3.109375 -3.890625 C 3.347656 -3.785156 3.554688 -3.640625 3.734375 -3.453125 C 3.910156 -3.265625 4.046875 -3.046875 4.140625 -2.796875 C 4.234375 -2.554688 4.28125 -2.300781 4.28125 -2.03125 Z M 1.234375 -2.4375 L 3.34375 -2.4375 C 3.320312 -2.582031 3.265625 -2.710938 3.171875 -2.828125 C 3.078125 -2.953125 2.953125 -3.050781 2.796875 -3.125 C 2.640625 -3.195312 2.472656 -3.234375 2.296875 -3.234375 C 2.140625 -3.234375 1.988281 -3.203125 1.84375 -3.140625 C 1.707031 -3.085938 1.582031 -3.003906 1.46875 -2.890625 C 1.363281 -2.773438 1.285156 -2.625 1.234375 -2.4375 Z M 1.234375 -2.4375 "/></g></g></g><g fill="#ffffff" fill-opacity="1"><g transform="translate(117.155115, 41.28703)"><g><path d="M 1.46875 0 L 0.546875 0 L 0.546875 -5.390625 L 1.46875 -5.390625 Z M 1.46875 0 "/></g></g></g></svg>